<?xml version="1.0" encoding="utf-8"?>
<!-- Generator: Adobe Illustrator 27.3.1, SVG Export Plug-In . SVG Version: 6.00 Build 0)  -->
<svg version="1.1" id="Outline" xmlns="http://www.w3.org/2000/svg" xmlns:xlink="http://www.w3.org/1999/xlink" x="0px" y="0px"
	 viewBox="0 0 64 64" enable-background="new 0 0 64 64" xml:space="preserve">
<path d="M56,49H36v-3h14c0.54999,0,1-0.45001,1-1V26c0-0.54999-0.45001-1-1-1H38.92999v-1.95001h2.28998
	c3.09003,0,5.61005-2.54999,5.61005-5.67999c0-2.97998-2.28003-5.42999-5.16003-5.66998
	c-0.76001-1.43005-2.26001-2.36005-3.90997-2.36005c-0.38,0-0.76001,0.05005-1.13,0.15002C35.59998,7.95996,33.87,7,32,7
	s-3.59998,0.95996-4.63,2.48999c-0.37-0.09998-0.75-0.15002-1.13-0.15002c-1.64996,0-3.14996,0.92999-3.90997,2.36005
	c-2.88,0.23999-5.16003,2.69-5.16003,5.66998c0,3.13,2.52002,5.67999,5.61005,5.67999h2.28998V25H14c-0.54999,0-1,0.45001-1,1v19
	c0,0.54999,0.45001,1,1,1h14v3H8c-0.54999,0-1,0.45001-1,1v4c0,0.54999,0.45001,1,1,1h48c0.54999,0,1-0.45001,1-1v-4
	C57,49.45001,56.54999,49,56,49z M22.78003,21.04999c-1.99005,0-3.61005-1.65002-3.61005-3.67999c0-2.03003,1.62-3.69,3.65002-3.69
	c0.48999,0.08997,0.96002-0.20001,1.12-0.66003c0.33002-1,1.26001-1.67999,2.29999-1.67999
	c0.39001,0,0.77002,0.10004,1.10999,0.28003c0.5,0.26001,1.15002,0.02997,1.38-0.47998C29.31,9.83997,30.59998,9,32,9
	s2.69,0.83997,3.27002,2.14001c0.22998,0.51996,0.87,0.73999,1.38,0.47998c0.33997-0.17999,0.71997-0.28003,1.10999-0.28003
	c1.03998,0,1.96997,0.67999,2.29999,1.67999c0.15997,0.46002,0.66998,0.75,1.15997,0.66003c1.99005,0,3.61005,1.65997,3.61005,3.69
	c0,2.02997-1.62,3.67999-3.61005,3.67999H22.78003z M36.92999,23.04999V25H33v-1.95001H36.92999z M32.97998,33.07001
	c0,0.54999-0.44,1.00995-0.97998,1.00995s-0.97998-0.45996-0.97998-1.00995c0-0.55005,0.44-1.01001,0.97998-1.01001
	S32.97998,32.51996,32.97998,33.07001z M31,23.04999V25h-3.92999v-1.95001H31z M15,44V27h10.07001v3.64996l-1.39001,1.42004H22.94
	c-0.40997-1.16003-1.5-2.01001-2.78998-2.01001c-1.64001,0-2.98004,1.34998-2.98004,3.01001
	c0,1.65997,1.34003,3.00995,2.98004,3.00995c1.28998,0,2.38-0.83997,2.78998-2.00995h1.15997
	c0.27002,0,0.52002-0.11005,0.71002-0.30005l1.97998-2c0.17999-0.19,0.28003-0.44,0.28003-0.70996V27H31v3.25
	c-1.15002,0.41998-1.97998,1.51996-1.97998,2.82001c0,1.65997,1.33997,3.00995,2.97998,3.00995s2.97998-1.34998,2.97998-3.00995
	c0-1.30005-0.82996-2.40002-1.97998-2.82001V27h3.92999v4.06c0,0.26996,0.10004,0.51996,0.28003,0.70996l1.97998,2
	c0.19,0.19,0.44,0.30005,0.71002,0.30005H41.06c0.40997,1.16998,1.5,2.00995,2.78998,2.00995
	c1.64001,0,2.98004-1.34998,2.98004-3.00995c0-1.66003-1.34003-3.01001-2.98004-3.01001c-1.28998,0-2.38,0.84998-2.78998,2.01001
	h-0.73999l-1.39001-1.42004V27H49v17H36v-1c0-2.21002-1.78998-4-4-4s-4,1.78998-4,4v1H15z M21.12,33.07001
	c0,0.54999-0.42999,1.00995-0.96997,1.00995c-0.54004,0-0.98004-0.45996-0.98004-1.00995c0-0.55005,0.44-1.01001,0.98004-1.01001
	C20.69,32.06,21.12,32.51996,21.12,33.07001z M42.88,33.07001c0-0.55005,0.42999-1.01001,0.96997-1.01001
	c0.54004,0,0.98004,0.45996,0.98004,1.01001c0,0.54999-0.44,1.00995-0.98004,1.00995C43.31,34.07996,42.88,33.62,42.88,33.07001z
	 M34,43v6h-4v-6c0-1.10004,0.90002-2,2-2S34,41.89996,34,43z M55,53H9v-2h46V53z"/>
</svg>
