<?xml version="1.0" encoding="utf-8"?>
<!-- Generator: Adobe Illustrator 27.3.1, SVG Export Plug-In . SVG Version: 6.00 Build 0)  -->
<svg version="1.1" id="Outline" xmlns="http://www.w3.org/2000/svg" xmlns:xlink="http://www.w3.org/1999/xlink" x="0px" y="0px"
	 viewBox="0 0 64 64" enable-background="new 0 0 64 64" xml:space="preserve">
<g>
	<path d="M56,24h-2v-8c0-0.26514-0.10547-0.51953-0.29297-0.70703l-8-8C45.51953,7.10547,45.26562,7,45,7H11
		c-0.55225,0-1,0.44775-1,1v12H8c-0.55225,0-1,0.44775-1,1v35c0,0.55225,0.44775,1,1,1h48c0.55273,0,1-0.44775,1-1V25
		C57,24.44775,56.55273,24,56,24z M46,10.41406L50.58594,15H46V10.41406z M12,9h32v7c0,0.55225,0.44727,1,1,1h7v7H37.9787
		l-0.02069-0.94873c2.08398-1.11865,3.44238-3.37158,3.44238-5.81348c0-2.78757-1.71384-5.27144-4.26458-6.17966
		C36.49337,10.82938,35.7998,11.31976,35.7998,12v3.70117L35,16.11279l-0.7998-0.41162c0,0,0-3.69756,0-3.70117
		c0-0.67865-0.69429-1.17346-1.33545-0.9419c-2.55078,0.90869-4.26465,3.39209-4.26465,6.17969
		c0,2.44189,1.35791,4.69482,3.44189,5.81348L32.0213,24h-9.60724l-3.70703-3.70703C18.51953,20.10547,18.26514,20,18,20h-6V9z
		 M33.4248,21.49268c-1.68945-0.67139-2.82471-2.38135-2.82471-4.25488c0-1.39551,0.60791-2.67822,1.6001-3.52295v2.59619
		c0,0.37451,0.20947,0.71777,0.54199,0.88916l1.7998,0.92676c0.28711,0.14746,0.62891,0.14746,0.91602,0l1.7998-0.92676
		c0.33301-0.17139,0.54199-0.51465,0.54199-0.88916v-2.59619c0.99316,0.84424,1.60059,2.12744,1.60059,3.52295
		c0,1.87354-1.13574,3.5835-2.8252,4.25488c-0.38867,0.1543-0.63965,0.5332-0.63086,0.95068L35.97797,24h-1.95593l0.03363-1.55664
		C34.06445,22.02588,33.81348,21.64697,33.4248,21.49268z M17.58594,22l3.70703,3.70703C21.48047,25.89453,21.73486,26,22,26h15
		h0.02148H55v3H9v-7H17.58594z M9,55V31h46v24H9z"/>
	<path d="M32,39c-2.20557,0-4,1.79443-4,4s1.79443,4,4,4c2.20605,0,4-1.79443,4-4S34.20605,39,32,39z M32,45
		c-1.10303,0-2-0.89697-2-2s0.89697-2,2-2c1.10254,0,2,0.89697,2,2S33.10254,45,32,45z"/>
	<path d="M50,40c-1.30194,0-2.40161,0.8385-2.81573,2H42v-1c0-0.55225-0.44727-1-1-1h-1.58398
		c-0.0166-0.04102-0.03418-0.08203-0.05078-0.12256l1.12012-1.12012c0.1875-0.1875,0.29297-0.44189,0.29297-0.70703
		s-0.10547-0.51953-0.29297-0.70703l-0.36029-0.36035L41.35156,36h2.83276c0.41412,1.1615,1.51373,2,2.81567,2
		c1.6543,0,3-1.3457,3-3s-1.3457-3-3-3c-1.30194,0-2.40161,0.8385-2.81573,2H41c-0.22754,0-0.44824,0.07764-0.625,0.21973
		l-1.6723,1.34058l-1.04547-1.04565c-0.1875-0.1875-0.44141-0.29297-0.70703-0.29297s-0.51953,0.10547-0.70703,0.29297
		l-1.12012,1.12012C35.08203,35.61768,35.04102,35.60107,35,35.58447V34c0-0.55225-0.44727-1-1-1h-4c-0.55225,0-1,0.44775-1,1
		v1.58447c-0.04102,0.0166-0.08203,0.0332-0.12256,0.05029l-1.12012-1.12012c-0.1875-0.1875-0.44189-0.29297-0.70703-0.29297
		s-0.51953,0.10547-0.70703,0.29297l-1.04553,1.04553l-1.67224-1.34045C23.44824,34.07764,23.22754,34,23,34h-3.18427
		C19.40161,32.8385,18.30194,32,17,32c-1.6543,0-3,1.3457-3,3s1.3457,3,3,3c1.30194,0,2.40161-0.8385,2.81573-2h2.8327
		l1.22644,0.98303l-0.36023,0.36023c-0.1875,0.1875-0.29297,0.44189-0.29297,0.70703s0.10547,0.51953,0.29297,0.70703
		l1.12012,1.12012C24.61768,39.91797,24.60107,39.95898,24.58447,40H23c-0.55225,0-1,0.44775-1,1v1h-5.18427
		C16.40161,40.8385,15.30194,40,14,40c-1.6543,0-3,1.3457-3,3s1.3457,3,3,3c1.30194,0,2.40161-0.8385,2.81573-2H22v1
		c0,0.55225,0.44775,1,1,1h1.58447c0.0166,0.04102,0.0332,0.08203,0.05029,0.12256l-1.12012,1.12012
		c-0.1875,0.1875-0.29297,0.44189-0.29297,0.70703s0.10547,0.51953,0.29297,0.70703l0.36023,0.36023L22.64844,50h-2.8327
		C19.40161,48.8385,18.30194,48,17,48c-1.6543,0-3,1.3457-3,3s1.3457,3,3,3c1.30194,0,2.40161-0.8385,2.81573-2H23
		c0.22754,0,0.44824-0.07764,0.62549-0.21973l1.67224-1.34045l1.04553,1.04553c0.375,0.375,1.03906,0.375,1.41406,0l1.12012-1.12012
		c0.04053,0.01709,0.08154,0.03369,0.12256,0.05029V52c0,0.55225,0.44775,1,1,1h4c0.55273,0,1-0.44775,1-1v-1.58447
		c0.04102-0.0166,0.08203-0.0332,0.12305-0.05029l1.12012,1.12012c0.375,0.375,1.03906,0.375,1.41406,0l1.04547-1.04565
		l1.6723,1.34058C40.55176,51.92236,40.77246,52,41,52h3.18433c0.41412,1.1615,1.51373,2,2.81567,2c1.6543,0,3-1.3457,3-3
		s-1.3457-3-3-3c-1.30194,0-2.40161,0.8385-2.81573,2h-2.8327l-1.2265-0.98291l0.36029-0.36035
		c0.1875-0.1875,0.29297-0.44189,0.29297-0.70703s-0.10547-0.51953-0.29297-0.70703l-1.12012-1.12012
		c0.0166-0.04053,0.03418-0.08154,0.05078-0.12256H41c0.55273,0,1-0.44775,1-1v-1h5.18433c0.41412,1.1615,1.51373,2,2.81567,2
		c1.6543,0,3-1.3457,3-3S51.6543,40,50,40z M47,34c0.55176,0,1,0.44873,1,1s-0.44824,1-1,1s-1-0.44873-1-1S46.44824,34,47,34z
		 M17,36c-0.55127,0-1-0.44873-1-1s0.44873-1,1-1s1,0.44873,1,1S17.55127,36,17,36z M14,44c-0.55127,0-1-0.44873-1-1s0.44873-1,1-1
		s1,0.44873,1,1S14.55127,44,14,44z M17,52c-0.55127,0-1-0.44873-1-1s0.44873-1,1-1s1,0.44873,1,1S17.55127,52,17,52z M47,50
		c0.55176,0,1,0.44873,1,1s-0.44824,1-1,1s-1-0.44873-1-1S46.44824,50,47,50z M40,44h-1.29395
		c-0.44238,0-0.83203,0.29053-0.95801,0.71436c-0.12207,0.40674-0.2793,0.78955-0.46875,1.13867
		c-0.21094,0.38916-0.1416,0.87109,0.17188,1.18408l0.91309,0.9126l-1.41406,1.41455l-0.91309-0.91309
		c-0.31348-0.31299-0.79492-0.38184-1.18359-0.17236c-0.35254,0.19141-0.73535,0.34912-1.13867,0.46875
		C33.29102,48.87354,33,49.26367,33,49.70605V51h-2v-1.29395c0-0.44238-0.29102-0.83252-0.71484-0.9585
		c-0.40283-0.11963-0.78613-0.27734-1.13867-0.46875c-0.38965-0.21094-0.87061-0.14014-1.18359,0.17236l-0.9126,0.9126
		l-1.41406-1.41406l0.9126-0.9126c0.31299-0.31299,0.3833-0.79443,0.17236-1.18359
		c-0.19141-0.35254-0.34912-0.73584-0.46875-1.13867C26.12646,44.29102,25.73633,44,25.29395,44H24v-2h1.29395
		c0.44238,0,0.83252-0.29102,0.9585-0.71484c0.11963-0.40283,0.27734-0.78613,0.46875-1.13867
		c0.21094-0.38916,0.14062-0.87061-0.17236-1.18359l-0.9126-0.9126l1.41406-1.41406l0.9126,0.9126
		c0.31299,0.31201,0.79395,0.38281,1.18359,0.17236c0.35254-0.19141,0.73584-0.34912,1.13867-0.46875
		C30.70898,37.12646,31,36.73633,31,36.29395V35h2v1.29395c0,0.44238,0.29102,0.83252,0.71484,0.9585
		c0.40332,0.11963,0.78613,0.27734,1.13867,0.46875c0.38867,0.20996,0.86914,0.1416,1.18359-0.17236l0.91309-0.91309
		l1.41406,1.41455l-0.91309,0.9126c-0.31348,0.31299-0.38281,0.79492-0.17188,1.18408
		c0.18945,0.34912,0.34668,0.73193,0.46875,1.13867C37.87402,41.70947,38.26367,42,38.70605,42H40V44z M50,44
		c-0.55176,0-1-0.44873-1-1s0.44824-1,1-1s1,0.44873,1,1S50.55176,44,50,44z"/>
	<path d="M15,13h12c0.55225,0,1-0.44775,1-1s-0.44775-1-1-1H15c-0.55225,0-1,0.44775-1,1S14.44775,13,15,13z"/>
	<path d="M24,16c0-0.55225-0.44775-1-1-1h-8c-0.55225,0-1,0.44775-1,1s0.44775,1,1,1h8C23.55225,17,24,16.55225,24,16z"/>
</g>
</svg>
