<?xml version="1.0" encoding="utf-8"?>
<!-- Generator: Adobe Illustrator 27.3.1, SVG Export Plug-In . SVG Version: 6.00 Build 0)  -->
<svg version="1.1" id="Outline" xmlns="http://www.w3.org/2000/svg" xmlns:xlink="http://www.w3.org/1999/xlink" x="0px" y="0px"
	 viewBox="0 0 64 64" enable-background="new 0 0 64 64" xml:space="preserve">
<g>
	<path d="M55.7002,6.91992H8.2998c-0.55273,0-1,0.44727-1,1v32.11035c0,0.55273,0.44727,1,1,1h9.04932
		c-0.10345,0.43073-0.17529,0.87341-0.17529,1.33594c0,3.13281,2.51562,5.68164,5.6084,5.68164h2.29199v3.60742l-1.39355,1.41504
		h-0.73883c-0.41028-1.16467-1.50153-2.00586-2.7934-2.00586c-1.64062,0-2.97461,1.34863-2.97461,3.00586
		c0,1.6582,1.33398,3.00684,2.97461,3.00684c1.29205,0,2.38336-0.84143,2.79352-2.00684h1.15765
		c0.26758,0,0.52441-0.10742,0.71288-0.29785l1.97462-2.00586c0.18359-0.1875,0.28711-0.43945,0.28711-0.70215v-4.0166H31v3.20386
		c-1.14777,0.41724-1.97559,1.5174-1.97559,2.8186c0,1.6582,1.33496,3.00684,2.97559,3.00684s2.97559-1.34863,2.97559-3.00684
		c0-1.30121-0.82776-2.40131-1.97559-2.8186v-3.20386h3.92578v4.0166c0,0.2627,0.10352,0.51465,0.28711,0.70215l1.9746,2.00586
		c0.18848,0.19043,0.44532,0.29785,0.7129,0.29785h1.15765c0.41016,1.16541,1.50146,2.00684,2.79352,2.00684
		c1.64062,0,2.97461-1.34863,2.97461-3.00684c0-1.65723-1.33398-3.00586-2.97461-3.00586
		c-1.29187,0-2.38306,0.84119-2.79333,2.00586h-0.73889l-1.39355-1.41504v-3.60742h2.29199c3.09277,0,5.6084-2.54883,5.6084-5.68164
		c0-0.46252-0.07184-0.90521-0.17529-1.33594h9.04932c0.55273,0,1-0.44727,1-1V7.91992
		C56.7002,7.36719,56.25293,6.91992,55.7002,6.91992z M20.14844,55.07715c-0.53711,0-0.97461-0.45215-0.97461-1.00684
		s0.4375-1.00586,0.97461-1.00586c0.53809,0,0.97559,0.45117,0.97559,1.00586S20.68652,55.07715,20.14844,55.07715z M32,55.07715
		c-0.53809,0-0.97559-0.45215-0.97559-1.00684S31.46191,53.06445,32,53.06445s0.97559,0.45117,0.97559,1.00586
		S32.53809,55.07715,32,55.07715z M43.85156,53.06445c0.53711,0,0.97461,0.45117,0.97461,1.00586s-0.4375,1.00684-0.97461,1.00684
		c-0.53809,0-0.97559-0.45215-0.97559-1.00684S43.31348,53.06445,43.85156,53.06445z M41.21777,46.04785H22.78223
		c-1.98926,0-3.6084-1.65137-3.6084-3.68164s1.61914-3.68164,3.64941-3.68359c0.4873,0.0791,0.95801-0.2002,1.11425-0.66699
		c0.33692-1,1.26173-1.67188,2.30177-1.67188c0.38672,0,0.77246,0.09473,1.11621,0.27344
		c0.24512,0.12695,0.5293,0.14844,0.79004,0.05762c0.25977-0.08984,0.47168-0.2832,0.58398-0.53418
		c0.583-1.29883,1.86719-2.1377,3.27051-2.1377s2.68749,0.83887,3.27051,2.1377c0.1123,0.25098,0.32422,0.44434,0.58398,0.53418
		c0.26074,0.0918,0.5459,0.07031,0.79004-0.05762c0.34375-0.17871,0.72949-0.27344,1.11621-0.27344
		c1.04004,0,1.96484,0.67188,2.30175,1.67188c0.15723,0.46582,0.66895,0.75586,1.15528,0.66895
		c1.98926,0,3.6084,1.65137,3.6084,3.68164S43.20703,46.04785,41.21777,46.04785z M13.24805,21.97461v-8.03906
		c0-0.55176,0.44824-1,1-1h35.50391c0.55176,0,1,0.44824,1,1v8.03906c0,0.54626-0.44037,0.9881-0.98456,0.99689
		c-0.00592-0.00006-0.01141-0.00177-0.0174-0.00177h-35.5c-0.00598,0-0.01147,0.00171-0.0174,0.00177
		C13.68842,22.96271,13.24805,22.52087,13.24805,21.97461z M13.25,25.96973c0-0.54584,0.4397-0.98718,0.98328-0.99664
		c0.00507,0,0.0097,0.00153,0.01477,0.00153h35.50391c0.00507,0,0.0097-0.00153,0.01477-0.00153
		C50.3103,24.98254,50.75,25.42389,50.75,25.96973v8.04004c0,0.56055-0.43945,1-1,1h-9.66675
		c-0.68274-0.42444-1.4809-0.66602-2.32251-0.66602c-0.37988,0-0.75879,0.0498-1.12598,0.14648
		c-1.0293-1.53516-2.7627-2.4873-4.63477-2.4873s-3.60547,0.95215-4.63477,2.4873c-0.36719-0.09668-0.74609-0.14648-1.12598-0.14648
		c-0.84161,0-1.63977,0.24158-2.32251,0.66602H14.25c-0.56055,0-1-0.43945-1-1V25.96973z M54.7002,39.03027h-8.97156
		c-0.672-0.92963-1.6084-1.63965-2.70465-2.02051H49.75c1.6543,0,3-1.3457,3-3v-8.04004c0-0.76941-0.29944-1.46484-0.77728-1.9964
		c0.47906-0.53186,0.77924-1.22821,0.77924-1.99872v-8.03906c0-1.6543-1.3457-3-3-3H14.24805c-1.6543,0-3,1.3457-3,3v8.03906
		c0,0.77051,0.30017,1.46686,0.77924,1.99872c-0.47784,0.53156-0.77728,1.22699-0.77728,1.9964v8.04004c0,1.6543,1.3457,3,3,3
		h6.72601c-1.09625,0.38086-2.03265,1.09088-2.70465,2.02051H9.2998V8.91992H54.7002V39.03027z"/>
	<path d="M16.19849,16.9519c0.54547,0,0.98761-0.44916,0.98761-1.00317c0-0.55408-0.44214-1.00323-0.98761-1.00323
		c-0.54541,0-0.98755,0.44916-0.98755,1.00323C15.21094,16.50275,15.65308,16.9519,16.19849,16.9519z"/>
	<path d="M20.14886,16.9519c0.54547,0,0.98761-0.44916,0.98761-1.00317c0-0.55408-0.44214-1.00323-0.98761-1.00323
		c-0.54541,0-0.98755,0.44916-0.98755,1.00323C19.16132,16.50275,19.60345,16.9519,20.14886,16.9519z"/>
	<path d="M24.09924,16.9519c0.54547,0,0.98761-0.44916,0.98761-1.00317c0-0.55408-0.44214-1.00323-0.98761-1.00323
		c-0.54541,0-0.98761,0.44916-0.98761,1.00323C23.11163,16.50275,23.55383,16.9519,24.09924,16.9519z"/>
	<path d="M16.19849,20.96472c0.54547,0,0.98761-0.44916,0.98761-1.00317c0-0.55408-0.44214-1.00323-0.98761-1.00323
		c-0.54541,0-0.98755,0.44916-0.98755,1.00323C15.21094,20.51556,15.65308,20.96472,16.19849,20.96472z"/>
	<path d="M20.14886,20.96472c0.54547,0,0.98761-0.44916,0.98761-1.00317c0-0.55408-0.44214-1.00323-0.98761-1.00323
		c-0.54541,0-0.98755,0.44916-0.98755,1.00323C19.16132,20.51556,19.60345,20.96472,20.14886,20.96472z"/>
	<path d="M24.09924,20.96472c0.54547,0,0.98761-0.44916,0.98761-1.00317c0-0.55408-0.44214-1.00323-0.98761-1.00323
		c-0.54541,0-0.98761,0.44916-0.98761,1.00323C23.11163,20.51556,23.55383,20.96472,24.09924,20.96472z"/>
	<path d="M33.97559,18.95508h13.82617c0.55273,0,1-0.44727,1-1s-0.44727-1-1-1H33.97559c-0.55273,0-1,0.44727-1,1
		S33.42285,18.95508,33.97559,18.95508z"/>
	<path d="M16.19849,28.99036c0.54547,0,0.98761-0.44916,0.98761-1.00317c0-0.55408-0.44214-1.00323-0.98761-1.00323
		c-0.54541,0-0.98755,0.44916-0.98755,1.00323C15.21094,28.5412,15.65308,28.99036,16.19849,28.99036z"/>
	<path d="M20.14886,28.99036c0.54547,0,0.98761-0.44916,0.98761-1.00317c0-0.55408-0.44214-1.00323-0.98761-1.00323
		c-0.54541,0-0.98755,0.44916-0.98755,1.00323C19.16132,28.5412,19.60345,28.99036,20.14886,28.99036z"/>
	<path d="M24.09924,28.99036c0.54547,0,0.98761-0.44916,0.98761-1.00317c0-0.55408-0.44214-1.00323-0.98761-1.00323
		c-0.54541,0-0.98761,0.44916-0.98761,1.00323C23.11163,28.5412,23.55383,28.99036,24.09924,28.99036z"/>
	<path d="M16.19849,33.00317c0.54547,0,0.98761-0.44916,0.98761-1.00317c0-0.55408-0.44214-1.00323-0.98761-1.00323
		c-0.54541,0-0.98755,0.44916-0.98755,1.00323C15.21094,32.55402,15.65308,33.00317,16.19849,33.00317z"/>
	<path d="M20.14886,33.00317c0.54547,0,0.98761-0.44916,0.98761-1.00317c0-0.55408-0.44214-1.00323-0.98761-1.00323
		c-0.54541,0-0.98755,0.44916-0.98755,1.00323C19.16132,32.55402,19.60345,33.00317,20.14886,33.00317z"/>
	<path d="M24.09924,33.00317c0.54547,0,0.98761-0.44916,0.98761-1.00317c0-0.55408-0.44214-1.00323-0.98761-1.00323
		c-0.54541,0-0.98761,0.44916-0.98761,1.00323C23.11163,32.55402,23.55383,33.00317,24.09924,33.00317z"/>
	<path d="M33.97559,30.99316h13.82617c0.55273,0,1-0.44727,1-1s-0.44727-1-1-1H33.97559c-0.55273,0-1,0.44727-1,1
		S33.42285,30.99316,33.97559,30.99316z"/>
</g>
</svg>
