<?xml version="1.0" encoding="utf-8"?>
<!-- Generator: Adobe Illustrator 27.3.1, SVG Export Plug-In . SVG Version: 6.00 Build 0)  -->
<svg version="1.1" id="Outline" xmlns="http://www.w3.org/2000/svg" xmlns:xlink="http://www.w3.org/1999/xlink" x="0px" y="0px"
	 viewBox="0 0 64 64" enable-background="new 0 0 64 64" xml:space="preserve">
<g>
	<path d="M56,7H8C7.45001,7,7,7.45001,7,8v36c0,0.54999,0.45001,1,1,1h19v5.12l-7.12,0.89001C19.38,51.07001,19,51.5,19,52v3h-3
		c-0.54999,0-1,0.45001-1,1s0.45001,1,1,1h32c0.54999,0,1-0.45001,1-1s-0.45001-1-1-1h-3v-3c0-0.5-0.38-0.92999-0.88-0.98999
		L37,50.12V45h19c0.54999,0,1-0.45001,1-1V8C57,7.45001,56.54999,7,56,7z M43,52.88V55H21v-2.12l7.12-0.89001
		C28.62,51.92999,29,51.5,29,51v-6h6v6c0,0.5,0.38,0.92999,0.88,0.98999L43,52.88z M55,43H9V9h46V43z"/>
	<path d="M12,41h40c0.55273,0,1-0.44775,1-1V12c0-0.55225-0.44727-1-1-1H12c-0.55273,0-1,0.44775-1,1v28
		C11,40.55225,11.44727,41,12,41z M51,13v8h-2v-3c0-0.55225-0.44727-1-1-1h-2.18427C45.40161,15.8385,44.30194,15,43,15
		c-1.6543,0-3,1.3457-3,3s1.3457,3,3,3c1.30194,0,2.40161-0.8385,2.81573-2H47v3c0,0.55225,0.44727,1,1,1h3v2h-5.18427
		C45.40161,23.8385,44.30194,23,43,23c-1.6543,0-3,1.3457-3,3s1.3457,3,3,3c1.30194,0,2.40161-0.8385,2.81573-2H51v2h-3
		c-0.55273,0-1,0.44775-1,1v3h-1.18427C45.40161,31.8385,44.30194,31,43,31c-1.6543,0-3,1.3457-3,3s1.3457,3,3,3
		c1.30194,0,2.40161-0.8385,2.81573-2H48c0.55273,0,1-0.44775,1-1v-3h2v8H13v-8h2v3c0,0.55225,0.44727,1,1,1h2.18433
		c0.41412,1.1615,1.51373,2,2.81567,2c1.6543,0,3-1.3457,3-3s-1.3457-3-3-3c-1.30194,0-2.40161,0.8385-2.81573,2H17v-3
		c0-0.55225-0.44727-1-1-1h-3v-2h5.18433c0.41412,1.1615,1.51373,2,2.81567,2c1.6543,0,3-1.3457,3-3s-1.3457-3-3-3
		c-1.30194,0-2.40161,0.8385-2.81573,2H13v-2h3c0.55273,0,1-0.44775,1-1v-3h1.18433c0.41412,1.1615,1.51373,2,2.81567,2
		c1.6543,0,3-1.3457,3-3s-1.3457-3-3-3c-1.30194,0-2.40161,0.8385-2.81573,2H16c-0.55273,0-1,0.44775-1,1v3h-2v-8H51z M44,18
		c0,0.55127-0.44824,1-1,1s-1-0.44873-1-1s0.44824-1,1-1S44,17.44873,44,18z M44,26c0,0.55127-0.44824,1-1,1s-1-0.44873-1-1
		s0.44824-1,1-1S44,25.44873,44,26z M44,34c0,0.55127-0.44824,1-1,1s-1-0.44873-1-1s0.44824-1,1-1S44,33.44873,44,34z M20,34
		c0-0.55127,0.44824-1,1-1s1,0.44873,1,1s-0.44824,1-1,1S20,34.55127,20,34z M20,26c0-0.55127,0.44824-1,1-1s1,0.44873,1,1
		s-0.44824,1-1,1S20,26.55127,20,26z M20,18c0-0.55127,0.44824-1,1-1s1,0.44873,1,1s-0.44824,1-1,1S20,18.55127,20,18z"/>
	<path d="M32,23h2v7c0,0.55225,0.44727,1,1,1s1-0.44775,1-1v-7h2c0.55273,0,1-0.44775,1-1s-0.44727-1-1-1h-6
		c-0.55273,0-1,0.44775-1,1S31.44727,23,32,23z"/>
	<path d="M29,31c0.55273,0,1-0.44775,1-1v-8c0-0.55225-0.44727-1-1-1s-1,0.44775-1,1v8C28,30.55225,28.44727,31,29,31z"/>
</g>
</svg>
