<?xml version="1.0" encoding="utf-8"?>
<!-- Generator: Adobe Illustrator 27.3.1, SVG Export Plug-In . SVG Version: 6.00 Build 0)  -->
<svg version="1.1" id="Outline" xmlns="http://www.w3.org/2000/svg" xmlns:xlink="http://www.w3.org/1999/xlink" x="0px" y="0px"
	 viewBox="0 0 64 64" enable-background="new 0 0 64 64" xml:space="preserve">
<g>
	<circle cx="12" cy="12" r="1"/>
	<circle cx="16" cy="12" r="1"/>
	<circle cx="20" cy="12" r="1"/>
	<path d="M56,7H8C7.44775,7,7,7.44727,7,8v26c0,0.53613,0.42285,0.97656,0.9585,0.99902
		c1.88623,0.07812,2.90039,1.38477,3.2207,2.58008s0.09473,2.83301-1.49951,3.84375
		c-0.45264,0.28711-0.59863,0.87988-0.33057,1.34473l2,3.46484c0.26709,0.46484,0.85449,0.63477,1.33008,0.38574
		c1.67236-0.875,3.20361-0.25195,4.07861,0.62305c0.87549,0.87598,1.49902,2.40723,0.62402,4.0791
		c-0.24854,0.47559-0.07812,1.06152,0.38623,1.33008l3.46387,2c0.46533,0.26855,1.05762,0.12305,1.34424-0.33008
		c1.01123-1.59473,2.64795-1.81836,3.84473-1.5c1.1958,0.32031,2.50146,1.33496,2.58008,3.22168
		C29.02344,56.57715,29.46387,57,30,57h4c0.53613,0,0.97656-0.42285,0.99902-0.95801
		c0.07861-1.88672,1.38428-2.90137,2.58008-3.22168c1.19434-0.32129,2.83252-0.09473,3.84473,1.5
		c0.2876,0.45312,0.88086,0.59863,1.34424,0.33008l3.46387-2c0.46436-0.26855,0.63477-0.85449,0.38623-1.33008
		c-0.875-1.67188-0.25146-3.20312,0.62402-4.0791c0.87549-0.875,2.40527-1.49902,4.07861-0.62305
		c0.47607,0.24902,1.0625,0.07715,1.33008-0.38574l2-3.46484c0.26807-0.46484,0.12207-1.05762-0.33057-1.34473
		c-1.59424-1.01074-1.81982-2.64844-1.49951-3.84375s1.33447-2.50195,3.2207-2.58008C56.57715,34.97656,57,34.53613,57,34V8
		C57,7.44727,56.55225,7,56,7z M50,23c-0.55127,0-1-0.44824-1-1s0.44873-1,1-1s1,0.44824,1,1S50.55127,23,50,23z M51,24.81573
		c1.1615-0.41412,2-1.51379,2-2.81573c0-1.6543-1.3457-3-3-3s-3,1.3457-3,3c0,1.30194,0.8385,2.40155,2,2.81567V29h-2
		c-0.55225,0-1,0.44727-1,1c0,2.40125-0.60895,4.66241-1.67853,6.63947L43,35.5332v-8.71747c1.1615-0.41412,2-1.51379,2-2.81573
		c0-1.6543-1.3457-3-3-3s-3,1.3457-3,3c0,1.30194,0.8385,2.40155,2,2.81567V36c0,0.2959,0.13135,0.57715,0.35791,0.7666
		l1.86768,1.56366c-1.82819,2.45703-4.43469,4.29327-7.45892,5.14032l-0.56207-8.27332C37.50146,33.97949,39,31.50488,39,28.82031
		c0-3.0507-1.87441-5.7684-4.66432-6.76261C33.68971,21.8275,33,22.31792,33,23v4.18066l-1,0.51465l-1-0.51465
		c0,0,0-4.16869,0-4.18064c0-0.68909-0.6887-1.16486-1.33545-0.94241C26.87451,23.05176,25,25.76953,25,28.82031
		c0,2.68457,1.49854,5.15918,3.79541,6.37695l-0.56207,8.27332c-3.02423-0.84705-5.63074-2.68329-7.45892-5.14032l1.86768-1.56366
		C22.86865,36.57715,23,36.2959,23,36v-9.18427c1.1615-0.41412,2-1.51379,2-2.81573c0-1.6543-1.3457-3-3-3s-3,1.3457-3,3
		c0,1.30194,0.8385,2.40155,2,2.81567v8.71753l-1.32147,1.10626C18.60895,34.66241,18,32.40125,18,30c0-0.55273-0.44775-1-1-1h-2
		v-4.18427c1.1615-0.41412,2-1.51379,2-2.81573c0-1.6543-1.3457-3-3-3s-3,1.3457-3,3c0,1.30194,0.8385,2.40155,2,2.81567V29H9V17h46
		v12h-4V24.81573z M42,25c-0.55127,0-1-0.44824-1-1s0.44873-1,1-1s1,0.44824,1,1S42.55127,25,42,25z M30.20898,33.65039
		C28.28955,32.88867,27,30.94727,27,28.82031c0-1.66797,0.76514-3.19434,2-4.14746v3.11719
		c0,0.37402,0.20898,0.71777,0.54199,0.88867l2,1.03027c0.28711,0.14844,0.62891,0.14844,0.91602,0l2-1.03027
		C34.79102,28.50781,35,28.16406,35,27.79004v-3.11719c1.23486,0.95312,2,2.47949,2,4.14746
		c0,2.12695-1.28955,4.06836-3.20898,4.83008c-0.40381,0.16113-0.6582,0.56348-0.62842,0.99707l0.62701,9.22504
		C33.20215,43.94794,32.60767,44,32,44s-1.20215-0.05206-1.78961-0.1275l0.62701-9.22504
		C30.86719,34.21387,30.61279,33.81152,30.20898,33.65039z M22,25c-0.55127,0-1-0.44824-1-1s0.44873-1,1-1s1,0.44824,1,1
		S22.55127,25,22,25z M14,23c-0.55127,0-1-0.44824-1-1s0.44873-1,1-1s1,0.44824,1,1S14.55127,23,14,23z M23.99976,15L25.5,13H55v2
		H23.99976z M55,9v2H25c-0.31494,0-0.61133,0.14844-0.7998,0.40039L21.50049,15H9V9H55z M50.88867,37.06152
		c-0.54834,2.04688,0.07227,4.10254,1.59033,5.46777L51.3584,44.4707c-1.94287-0.63184-4.03174-0.1416-5.53027,1.35645
		c-1.49902,1.49902-1.98926,3.58887-1.35742,5.53027l-1.94141,1.12109c-1.36621-1.51758-3.41992-2.1377-5.46777-1.58984
		C35.01416,51.4375,33.54492,53.00293,33.12109,55h-2.24219c-0.42383-1.99707-1.89307-3.5625-3.94043-4.11133
		c-2.04834-0.54688-4.10254,0.07227-5.46777,1.58984l-1.94141-1.12109c0.63184-1.94141,0.1416-4.03125-1.35742-5.53027
		c-1.49854-1.49805-3.5874-1.98828-5.53027-1.35645L11.521,42.5293c1.51807-1.36523,2.13867-3.4209,1.59033-5.46777
		C12.5625,35.01367,10.99756,33.54492,9,33.12109V31h7.03076C16.54932,39.3584,23.51367,46,32,46s15.45068-6.6416,15.96924-15H55
		v2.12109C53.00244,33.54492,51.4375,35.01367,50.88867,37.06152z"/>
</g>
</svg>
