<?xml version="1.0" encoding="utf-8"?>
<!-- Generator: Adobe Illustrator 27.3.1, SVG Export Plug-In . SVG Version: 6.00 Build 0)  -->
<svg version="1.1" id="Outline" xmlns="http://www.w3.org/2000/svg" xmlns:xlink="http://www.w3.org/1999/xlink" x="0px" y="0px"
	 viewBox="0 0 64 64" enable-background="new 0 0 64 64" xml:space="preserve">
<g>
	<path d="M51,49.14758V36c0-6.6167-5.3833-12-12-12c-3.97607,0-7.49646,1.95197-9.68127,4.93927
		c-0.04272-0.04407-0.07812-0.09357-0.12146-0.13702c-0.34515-0.3446-0.71405-0.66266-1.09473-0.9646
		c1.06628-1.47577,1.73651-3.24969,1.86383-5.17377c0,0,0.6569,0.26277,0.66202,0.26482C31.23965,23.17321,32,22.71481,32,22v-3
		c0-6.6167-5.3833-12-12-12S8,12.3833,8,19c0,0,0,2.99408,0,2.99999c0,0.69842,0.72019,1.18866,1.37158,0.92872l0.66205-0.26483
		c0.12732,1.92413,0.79761,3.69794,1.86389,5.17377c-0.38062,0.302-0.74963,0.62018-1.09479,0.96509
		C8.35059,31.25537,7,34.52197,7,38c0,0.55225,0.44775,1,1,1h19v10.14758c-3.02478,0.85645-5.3418,3.45154-5.98242,6.8363
		c-0.05566,0.29248,0.02246,0.59473,0.2124,0.82422c0.18994,0.229,0.47217,0.36182,0.77002,0.36182h34
		c0.29785,0,0.58008-0.13281,0.77002-0.36182c0.18994-0.22949,0.26807-0.53174,0.2124-0.82422
		C56.3418,52.59912,54.02478,50.00403,51,49.14758z M39,26c5.51416,0,10,4.48584,10,10v12.72925l-4.68164-0.81323
		c-0.39795-0.07227-0.69824-0.50049-0.69824-0.99609v-2.40063C45.6615,43.06824,47,40.68964,47,38c0,0,0-3.98796,0-3.99997
		c0-0.80379-0.95723-1.28092-1.6001-0.80032c-0.75391,0.56641-1.71387,0.76807-2.63281,0.5498
		c-0.91797-0.2168-1.68652-0.8252-2.1084-1.66895l-0.76416-1.52783c-0.14404-0.2876-0.41699-0.48828-0.73438-0.54004
		c-0.31396-0.04785-0.63965,0.05322-0.86719,0.28027l-1.76416,1.76416c-1.10985,1.10838-2.72359,1.49022-4.21234,0.99416
		C31.67732,32.83832,31,33.32838,31,34v4c0,2.68964,1.3385,5.06824,3.37988,6.51929v2.40063
		c0,0.49561-0.30029,0.92383-0.69141,0.99463L29,48.72919V36C29,30.48584,33.48584,26,39,26z M39,49.8208l-2.83118-1.77051
		c0.13306-0.35089,0.21106-0.73077,0.21106-1.13037v-1.36963C37.20221,45.83655,38.08142,46,39,46s1.79779-0.16345,2.62012-0.44971
		v1.36963c0,0.39954,0.078,0.77948,0.21112,1.13037L39,49.8208z M39,44c-3.30859,0-6-2.69141-6-6v-2.76611
		c1.8042,0.18799,3.61768-0.43701,4.94287-1.7627l0.7832-0.7832l0.14355,0.28711c0.68799,1.37549,1.94092,2.36768,3.4375,2.72119
		C43.20947,35.90918,44.13672,35.87598,45,35.6123V38C45,41.30859,42.30859,44,39,44z M12,22v-0.29053
		c1.56641-0.98798,2.80444-2.43353,3.52734-4.14209c2.77637,1.60059,6.16895,1.60059,8.94531,0
		c0.7229,1.70856,1.96094,3.15411,3.52734,4.14209V22c0,4.41113-3.58887,8-8,8S12,26.41113,12,22z M10,19
		c0-5.51416,4.48584-10,10-10s10,4.48584,10,10v1.51953c-2.00046-0.87255-3.49898-2.63813-4.02976-4.7621
		c-0.17466-0.69891-1.03298-0.98852-1.59475-0.53819c-2.57609,2.06048-6.17457,2.06055-8.75072,0.0002
		c-0.56146-0.44905-1.42094-0.15827-1.59498,0.53788c-0.53076,2.12402-2.0293,3.88965-4.02979,4.76221V19z M9.04443,37
		c0.22852-2.56592,1.33447-4.94482,3.17236-6.78271c0.3175-0.3175,0.65979-0.60596,1.01221-0.8797
		C15.01227,30.98444,17.3869,32,20,32c2.61316,0,4.98779-1.0155,6.77106-2.66241c0.35236,0.27356,0.69446,0.56183,1.01166,0.87872
		c0.16193,0.16223,0.30286,0.34045,0.45392,0.51184C27.45264,32.32202,27,34.10712,27,36v1H9.04443z M28.03229,50.93341
		c0.0752-0.00256,0.14362-0.0249,0.21375-0.04315l5.79205-1.00647c0.29218-0.05298,0.5625-0.16034,0.81403-0.29834L38,51.55389
		v3.61603H23.30566C24.10547,52.95551,25.86597,51.34753,28.03229,50.93341z M40,55.16992v-3.61603l3.14874-1.96899
		c0.25311,0.13892,0.52539,0.24689,0.82001,0.30035l5.7854,1.005c0.07007,0.01825,0.13843,0.04059,0.21356,0.04315
		c2.16632,0.41412,3.92682,2.02209,4.72662,4.23651H40z"/>
	<path d="M48,25c4.9624,0,9-4.0376,9-9s-4.0376-9-9-9s-9,4.0376-9,9S43.0376,25,48,25z M48,9c3.85986,0,7,3.14014,7,7
		s-3.14014,7-7,7s-7-3.14014-7-7S44.14014,9,48,9z"/>
	<path d="M46.29301,18.70708c0.3877,0.38764,1.02429,0.38967,1.41402-0.00005c0.00004-0.00004,4-4,4-4
		c0.39062-0.39062,0.39062-1.02344,0-1.41406s-1.02344-0.39062-1.41406,0L47,16.58594l-1.29297-1.29297
		c-0.39062-0.39062-1.02344-0.39062-1.41406,0s-0.39062,1.02344,0,1.41406C44.29297,16.70703,46.29297,18.70703,46.29301,18.70708z"
		/>
</g>
</svg>
