<?xml version="1.0" encoding="utf-8"?>
<!-- Generator: Adobe Illustrator 27.3.1, SVG Export Plug-In . SVG Version: 6.00 Build 0)  -->
<svg version="1.1" id="Outline" xmlns="http://www.w3.org/2000/svg" xmlns:xlink="http://www.w3.org/1999/xlink" x="0px" y="0px"
	 viewBox="0 0 64 64" enable-background="new 0 0 64 64" xml:space="preserve">
<g>
	<path d="M56,47h-4v-2h2c0.54999,0,1-0.45001,1-1V16c0-0.54999-0.45001-1-1-1h-7.52002
		c-0.83997-1.83002-2.59998-3.15002-4.69995-3.31c-0.77002-1.44-2.27002-2.36005-3.95001-2.36005
		c-0.39001,0-0.78003,0.05005-1.15002,0.15002C35.64001,7.95001,33.89001,7,32,7s-3.64001,0.95001-4.67999,2.47998
		C26.95001,9.38,26.56,9.32996,26.16998,9.32996c-1.67999,0-3.17999,0.92004-3.95001,2.36005
		C20.12,11.84998,18.35999,13.16998,17.52002,15H10c-0.54999,0-1,0.45001-1,1v28c0,0.54999,0.45001,1,1,1h2v2H8
		c-0.54999,0-1,0.45001-1,1v4c0,0.26996,0.10999,0.51996,0.28998,0.70996l4,4C11.47998,56.89001,11.72998,57,12,57h40
		c0.27002,0,0.52002-0.10999,0.71002-0.29004l4-4C56.89001,52.51996,57,52.26996,57,52v-4C57,47.45001,56.54999,47,56,47z
		 M22.73999,13.66998c0.47998,0.07001,0.92999-0.21997,1.09003-0.66998c0.32996-1,1.26996-1.67004,2.33997-1.67004
		c0.4,0,0.79,0.09002,1.11994,0.26999c0.50624,0.27613,1.13429,0.0521,1.38006-0.45993C29.27002,9.83997,30.57001,9,32,9
		c1.42994,0,2.72988,0.8399,3.32995,2.13986c0.23515,0.50943,0.88798,0.72661,1.38007,0.46011
		c0.32996-0.17999,0.71997-0.27002,1.12-0.27002c1.07001,0,2.01001,0.67004,2.33997,1.67004
		c0.16003,0.45001,0.69,0.73999,1.16003,0.66998C43.34998,13.66998,45,15.31,45,17.32996C45,19.34998,43.34998,21,41.33002,21H41v-3
		c0-0.35004-0.17999-0.67004-0.46997-0.85004c-0.30005-0.17999-0.67004-0.19995-0.98004-0.03998
		c-2,1-4.41998,0.60999-6.01001-0.97998l-0.82996-0.84003c-0.39001-0.39001-1.03003-0.39001-1.42004,0L30.46002,16.13
		c-1.59003,1.58997-4.01001,1.97998-6.01001,0.97998c-0.31-0.15997-0.67999-0.14001-0.98004,0.03998
		C23.17999,17.32996,23,17.64996,23,18v3h-0.33002C20.65002,21,19,19.34998,19,17.32996
		C19,15.31,20.65002,13.66998,22.73999,13.66998z M39,19.42999V25.75c0,4.32001-2.87,8.07001-7,9.21997
		c-4.13-1.14996-7-4.89996-7-9.21997v-6.32001c2.42999,0.62,5.03998-0.06,6.87-1.89001l0.13-0.13l0.13,0.13
		C33.96002,19.37,36.57001,20.04999,39,19.42999z M18.35999,21c1.04004,1.21997,2.58002,2,4.31,2H23v2.75
		c0,5.32001,3.59998,9.92999,8.76001,11.21997c0.15997,0.04004,0.32001,0.04004,0.47998,0C37.40002,35.67999,41,31.07001,41,25.75
		V23h0.33002c1.72998,0,3.26996-0.78003,4.31-2H49v18H15V21H18.35999z M11,43V17h6.03003c0,0.10999-0.03003,0.21997-0.03003,0.32996
		c0,0.58002,0.09003,1.14001,0.25,1.67004H14c-0.54999,0-1,0.45001-1,1v20c0,0.54999,0.45001,1,1,1h36c0.54999,0,1-0.45001,1-1V20
		c0-0.54999-0.45001-1-1-1h-3.25c0.15997-0.53003,0.25-1.09003,0.25-1.67004c0-0.10999-0.03003-0.21997-0.03003-0.32996H53v26H11z
		 M14,47v-2h36v2H14z M38.38,49l-1,2H26.62l-1-2H38.38z M55,51.58997L51.59003,55H12.40997L9,51.58997V49h14.38l1.72998,3.45001
		C25.28003,52.78998,25.62,53,26,53h12c0.38,0,0.71997-0.21002,0.89001-0.54999L40.62,49H55V51.58997z"/>
	<circle cx="15" cy="52" r="1"/>
	<circle cx="19" cy="52" r="1"/>
	<path d="M36.11816,21.58887c-1.28613-0.15234-2.49902-0.56543-3.60547-1.22656c-0.31445-0.18945-0.71094-0.18945-1.02539,0
		c-1.10645,0.66113-2.31934,1.07422-3.60547,1.22656C27.37891,21.64844,27,22.0752,27,22.58203v3.17188
		c0,3.0459,1.80957,5.77832,4.61037,6.96192c0.24929,0.10516,0.52996,0.10535,0.77928-0.00001
		C35.19043,31.53223,37,28.7998,37,25.75391v-3.17188C37,22.0752,36.62109,21.64844,36.11816,21.58887z M32,30.69141
		c-1.83594-0.94824-3-2.8418-3-4.9375v-2.31934c1.0498-0.20898,2.05371-0.56641,3-1.06641c0.94629,0.5,1.9502,0.85742,3,1.06641
		v0.15137l-3,3l-0.29297-0.29297c-0.39062-0.39062-1.02344-0.39062-1.41406,0s-0.39062,1.02344,0,1.41406c0,0,1,1,1.00006,1.00006
		c0.38721,0.38714,1.02628,0.38766,1.414-0.00006l2.24396-2.24396C34.72083,28.26947,33.62592,29.85162,32,30.69141z"/>
</g>
</svg>
