<?xml version="1.0" encoding="utf-8"?>
<!-- Generator: Adobe Illustrator 27.3.1, SVG Export Plug-In . SVG Version: 6.00 Build 0)  -->
<svg version="1.1" id="Outline" xmlns="http://www.w3.org/2000/svg" xmlns:xlink="http://www.w3.org/1999/xlink" x="0px" y="0px"
	 viewBox="0 0 64 64" enable-background="new 0 0 64 64" xml:space="preserve">
<g>
	<path d="M56,7H8C7.45001,7,7,7.45001,7,8v36c0,0.54999,0.45001,1,1,1h19v5.12l-7.12,0.89001C19.38,51.07001,19,51.5,19,52v3h-3
		c-0.54999,0-1,0.45001-1,1s0.45001,1,1,1h32c0.54999,0,1-0.45001,1-1s-0.45001-1-1-1h-3v-3c0-0.5-0.38-0.92999-0.88-0.98999
		L37,50.12V45h19c0.54999,0,1-0.45001,1-1V8C57,7.45001,56.54999,7,56,7z M43,52.88V55H21v-2.12l7.12-0.89001
		C28.62,51.92999,29,51.5,29,51v-6h6v6c0,0.5,0.38,0.92999,0.88,0.98999L43,52.88z M55,43H9V9h46V43z"/>
	<path d="M12,41h40c0.55225,0,1-0.44775,1-1V12c0-0.55225-0.44775-1-1-1H12c-0.55225,0-1,0.44775-1,1v28
		C11,40.55225,11.44775,41,12,41z M13,13h38v26H13V13z"/>
	<path d="M32,15c-6.06543,0-11,4.93457-11,11s4.93457,11,11,11s11-4.93457,11-11S38.06543,15,32,15z M23.05902,27h2.96765
		c0.04968,1.0545,0.17963,2.05841,0.37482,3h-2.45172C23.48926,29.07715,23.1778,28.0683,23.05902,27z M33,20v-2.66553
		c0.70911,0.45966,1.38983,1.38379,1.92413,2.66553H33z M35.55682,22c0.21234,0.90869,0.36133,1.91156,0.41718,3H33v-3H35.55682z
		 M31,17.33447V20h-1.92413C29.61017,18.71826,30.29089,17.79413,31,17.33447z M31,22v3h-2.974
		c0.05585-1.08844,0.20483-2.09131,0.41718-3H31z M26.02667,25h-2.96765c0.11877-1.0683,0.43024-2.07715,0.89075-3h2.45172
		C26.2063,22.94159,26.07635,23.9455,26.02667,25z M28.026,27H31v3h-2.55682C28.23083,29.09131,28.08185,28.08844,28.026,27z M31,32
		v2.66553C30.29089,34.20587,29.61017,33.28174,29.07587,32H31z M33,34.66553V32h1.92413
		C34.38983,33.28174,33.70911,34.20587,33,34.66553z M33,30v-3h2.974c-0.05585,1.08844-0.20483,2.09131-0.41718,3H33z M37.97333,27
		h2.96765c-0.11877,1.0683-0.43024,2.07715-0.89075,3h-2.45172C37.7937,29.05841,37.92365,28.0545,37.97333,27z M37.97333,25
		c-0.04968-1.0545-0.17963-2.05841-0.37482-3h2.45172c0.46051,0.92285,0.77197,1.9317,0.89075,3H37.97333z M38.68896,20h-1.63757
		c-0.25195-0.72113-0.54846-1.38074-0.88373-1.96936C37.12341,18.53253,37.97363,19.20337,38.68896,20z M27.83234,18.03064
		C27.49707,18.61926,27.20056,19.27887,26.94861,20h-1.63757C26.02637,19.20337,26.87659,18.53253,27.83234,18.03064z M25.31104,32
		h1.63757c0.25195,0.72113,0.54846,1.38074,0.88373,1.96936C26.87659,33.46747,26.02637,32.79663,25.31104,32z M36.16766,33.96936
		c0.33527-0.58862,0.63177-1.24823,0.88373-1.96936h1.63757C37.97363,32.79663,37.12341,33.46747,36.16766,33.96936z"/>
	<path d="M22.80762,16.80762c0.39062-0.39062,0.39062-1.02344,0-1.41406s-1.02344-0.39062-1.41406,0
		c-5.84863,5.84814-5.84863,15.36475,0.00008,21.21297c0.389,0.3889,1.02677,0.38713,1.41398-0.00008
		c0.39062-0.39062,0.39062-1.02344,0-1.41406C17.73926,30.12354,17.73926,21.87646,22.80762,16.80762z"/>
	<path d="M41.19238,15.39355c-0.39062,0.39062-0.39062,1.02344,0,1.41406c5.06836,5.06885,5.06836,13.31592,0,18.38477
		c-0.39062,0.39062-0.39062,1.02344,0.00012,1.41418c0.3878,0.38766,1.02477,0.38903,1.41394-0.00012
		c5.84863-5.84815,5.84863-15.36475,0-21.21289C42.21582,15.00293,41.58301,15.00293,41.19238,15.39355z"/>
</g>
</svg>
