<?xml version="1.0" encoding="utf-8"?>
<!-- Generator: Adobe Illustrator 27.3.1, SVG Export Plug-In . SVG Version: 6.00 Build 0)  -->
<svg version="1.1" id="Outline" xmlns="http://www.w3.org/2000/svg" xmlns:xlink="http://www.w3.org/1999/xlink" x="0px" y="0px"
	 viewBox="0 0 64 64" enable-background="new 0 0 64 64" xml:space="preserve">
<g>
	<path d="M56,14h-1.58398c-0.0166-0.04102-0.03418-0.08203-0.05078-0.12256l1.12012-1.12012
		c0.1875-0.1875,0.29297-0.44189,0.29297-0.70703s-0.10547-0.51953-0.29297-0.70703l-2.82812-2.82861
		c-0.1875-0.1875-0.44141-0.29297-0.70703-0.29297s-0.51953,0.10547-0.70703,0.29297l-1.12012,1.12012
		C50.08203,9.61768,50.04102,9.60107,50,9.58447V8c0-0.55225-0.44727-1-1-1h-4c-0.55273,0-1,0.44775-1,1v1.58447
		c-0.04102,0.0166-0.08203,0.0332-0.12305,0.05029l-1.12012-1.12012c-0.375-0.375-1.03906-0.375-1.41406,0L38.85785,11H16
		c-0.55273,0-1,0.44775-1,1v12.70007C10.34674,26.35266,7,30.78729,7,36c0,0,0,2.99443,0,2.99999
		c0,0.66445,0.69791,1.19864,1.37109,0.92872L9,39.67712V40c0,2.90192,1.25012,5.51086,3.23096,7.33923
		C9.59375,49.40417,8,52.60938,8,56c0,0.55225,0.44727,1,1,1h20c0.55273,0,1-0.44775,1-1c0-0.33612-0.0191-0.66919-0.04877-1H52
		c0.55273,0,1-0.44775,1-1V25.14252l2.48535-2.48578c0.1875-0.1875,0.29297-0.44189,0.29297-0.70703
		s-0.10547-0.51953-0.29297-0.70703l-1.12012-1.12012c0.0166-0.04053,0.03418-0.08154,0.05078-0.12256H56c0.55273,0,1-0.44775,1-1
		v-4C57,14.44775,56.55273,14,56,14z M9,36c0-5.51416,4.48633-10,10-10s10,4.48584,10,10v1.51953
		c-1.99984-0.87249-3.49878-2.63741-4.03015-4.76169c-0.17302-0.69172-1.03855-0.98455-1.59485-0.5386
		c-2.5761,2.06049-6.17361,2.06055-8.74977,0.00018c-0.56137-0.44897-1.42211-0.15757-1.59496,0.5379
		C12.49902,34.88184,11,36.64697,9,37.51953V36z M11,40v-1.29059c1.56665-0.98785,2.80487-2.43317,3.52734-4.14203
		c2.77539,1.60059,6.16992,1.60059,8.94531,0c0.72247,1.70886,1.96069,3.15417,3.52734,4.14203V40c0,4.41113-3.58887,8-8,8
		S11,44.41113,11,40z M10.05664,55c0.29266-2.57928,1.71161-4.92761,3.86096-6.40326C15.40924,49.48206,17.14325,50,19,50
		c1.85699,0,3.59125-0.51807,5.08301-1.40363c0.4483,0.30524,0.88214,0.6427,1.28027,1.04083
		c1.46191,1.4624,2.35938,3.33838,2.58203,5.36279H10.05664z M40.20898,44.65088C38.29004,43.88818,37,41.94678,37,39.81982
		c0-1.66748,0.76562-3.19385,2-4.14746v3.11768c0,0.37451,0.20898,0.71777,0.54199,0.88916l2,1.02979
		c0.28711,0.14746,0.62891,0.14746,0.91602,0l2-1.02979C44.79102,39.50781,45,39.16455,45,38.79004v-3.11768
		c1.23438,0.95361,2,2.47998,2,4.14746c0,2.12695-1.29004,4.06836-3.20898,4.83105
		c-0.41504,0.16455-0.66992,0.58447-0.62598,1.02832L43.89526,53h-3.79053l0.73022-7.3208
		C40.87891,45.23535,40.62402,44.81543,40.20898,44.65088z M45.90527,53l-0.67969-6.81396
		C47.51074,44.96387,49,42.49561,49,39.81982c0-3.05057-1.87376-5.76769-4.66349-6.76151C43.6896,32.82785,43,33.31635,43,34
		v4.18018l-1,0.51465l-1-0.51465c0,0,0-4.1599,0-4.1801c0-0.66815-0.7072-1.16968-1.33594-0.94197
		C36.87402,34.05176,35,36.76904,35,39.81982c0,2.67578,1.48926,5.14404,3.77441,6.36621L38.09473,53h-8.51569
		c-0.50433-1.78674-1.45221-3.42706-2.8017-4.77686c-0.31946-0.3197-0.65613-0.61432-1.00488-0.88702
		C27.75134,45.50787,29,42.90027,29,40v-0.32288c0,0,0.62611,0.25047,0.6289,0.25158C30.23704,40.17199,31,39.71004,31,39v-3
		c0-6.6167-5.38281-12-12-12c-0.6828,0-1.34808,0.07062-2,0.18066V13h21.75732l0.87744,0.87744
		c-0.0166,0.04053-0.03418,0.08154-0.05078,0.12256H38c-0.55273,0-1,0.44775-1,1v4c0,0.55225,0.44727,1,1,1h1.58398
		c0.0166,0.04102,0.03418,0.08203,0.05078,0.12256l-1.12012,1.12012c-0.1875,0.1875-0.29297,0.44189-0.29297,0.70703
		s0.10547,0.51953,0.29297,0.70703l2.82812,2.82861c0.1875,0.1875,0.44141,0.29297,0.70703,0.29297s0.51953-0.10547,0.70703-0.29297
		l1.12012-1.12012c0.04102,0.01709,0.08203,0.03369,0.12305,0.05029V26c0,0.55225,0.44727,1,1,1h4c0.55273,0,1-0.44775,1-1v-1.58447
		c0.04102-0.0166,0.08203-0.0332,0.12305-0.05029L51,25.24219V53H45.90527z M55,18h-1.29395
		c-0.44238,0-0.83203,0.29053-0.95801,0.71436c-0.12207,0.40674-0.2793,0.78955-0.46875,1.13867
		c-0.21094,0.38916-0.1416,0.87109,0.17188,1.18408l0.91309,0.9126l-1.41406,1.41455l-0.91309-0.91309
		c-0.31348-0.3125-0.79395-0.38135-1.18359-0.17236c-0.35254,0.19141-0.73535,0.34912-1.13867,0.46875
		C48.29102,22.87354,48,23.26367,48,23.70605V25h-2v-1.29395c0-0.44238-0.29102-0.83252-0.71484-0.9585
		c-0.40332-0.11963-0.78613-0.27734-1.13867-0.46875c-0.38867-0.20947-0.87012-0.14111-1.18359,0.17236l-0.91309,0.91309
		l-1.41406-1.41455l0.91309-0.9126c0.31348-0.31299,0.38281-0.79492,0.17188-1.18408
		c-0.18945-0.34912-0.34668-0.73193-0.46875-1.13867C41.12598,18.29053,40.73633,18,40.29395,18H39v-2h1.29395
		c0.44238,0,0.83203-0.29053,0.95801-0.71436c0.12207-0.40674,0.2793-0.78955,0.46875-1.13867
		c0.21094-0.38916,0.1416-0.87109-0.17188-1.18408l-0.91309-0.9126l1.41406-1.41455l0.91309,0.91309
		c0.31348,0.31348,0.7959,0.38232,1.18359,0.17236c0.35254-0.19141,0.73535-0.34912,1.13867-0.46875
		C45.70898,11.12646,46,10.73633,46,10.29395V9h2v1.29395c0,0.44238,0.29102,0.83252,0.71484,0.9585
		c0.40332,0.11963,0.78613,0.27734,1.13867,0.46875c0.38867,0.20947,0.87012,0.14111,1.18359-0.17236l0.91309-0.91309
		l1.41406,1.41455l-0.91309,0.9126c-0.31348,0.31299-0.38281,0.79492-0.17188,1.18408
		c0.18945,0.34912,0.34668,0.73193,0.46875,1.13867C52.87402,15.70947,53.26367,16,53.70605,16H55V18z"/>
	<path d="M47,13c-2.20605,0-4,1.79443-4,4s1.79395,4,4,4s4-1.79443,4-4S49.20605,13,47,13z M47,19c-1.10254,0-2-0.89697-2-2
		s0.89746-2,2-2s2,0.89697,2,2S48.10254,19,47,19z"/>
	<path d="M20,17h10c0.55273,0,1-0.44775,1-1s-0.44727-1-1-1H20c-0.55273,0-1,0.44775-1,1S19.44727,17,20,17z"/>
	<path d="M34,19H20c-0.55273,0-1,0.44775-1,1s0.44727,1,1,1h14c0.55273,0,1-0.44775,1-1S34.55273,19,34,19z"/>
</g>
</svg>
