<?xml version="1.0" encoding="utf-8"?>
<!-- Generator: Adobe Illustrator 27.3.1, SVG Export Plug-In . SVG Version: 6.00 Build 0)  -->
<svg version="1.1" id="Outline" xmlns="http://www.w3.org/2000/svg" xmlns:xlink="http://www.w3.org/1999/xlink" x="0px" y="0px"
	 viewBox="0 0 64 64" enable-background="new 0 0 64 64" xml:space="preserve">
<g>
	<path d="M43.40918,51.95508C39.96387,53.94727,36.01855,55,32,55c-4.75977,0-9.3291-1.44824-13.21924-4.19141
		c-0.8299-0.57642-1.61383-1.21515-2.35602-1.89844h1.78668c0.55225,0,1-0.44727,1-1s-0.44775-1-1-1h-4.24268
		c-0.55225,0-1,0.44727-1,1v4.24219c0,0.55273,0.44775,1,1,1s1-0.44727,1-1v-1.86755c0.83826,0.78094,1.7251,1.5094,2.66504,2.16248
		C21.85742,55.42578,26.8252,57,32,57c4.36914,0,8.66113-1.14551,12.41113-3.31445c0.47754-0.27637,0.6416-0.8877,0.36426-1.36621
		C44.5,51.8418,43.8877,51.67578,43.40918,51.95508z"/>
	<path d="M20.59033,12.0459C24.03564,10.05322,27.98096,9,32,9c4.75879,0,9.32812,1.44775,13.21973,4.19141
		c0.83026,0.57703,1.61456,1.21576,2.35675,1.89893h-1.78741c-0.55273,0-1,0.44775-1,1s0.44727,1,1,1h4.24219
		c0.55273,0,1-0.44775,1-1v-4.24268c0-0.55225-0.44727-1-1-1s-1,0.44775-1,1v1.86719
		c-0.83795-0.7807-1.72485-1.50897-2.66504-2.16211C42.1416,8.57422,37.17383,7,32,7c-4.37012,0-8.66162,1.146-12.41064,3.31445
		c-0.47803,0.27637-0.6416,0.88818-0.36523,1.36621C19.50146,12.16016,20.11426,12.32178,20.59033,12.0459z"/>
	<path d="M9,32c0-4.75977,1.44775-9.3291,4.19141-13.21973c0.57666-0.82996,1.21539-1.61407,1.89893-2.35638v1.78754
		c0,0.55225,0.44775,1,1,1s1-0.44775,1-1v-4.24268c0-0.55225-0.44775-1-1-1h-4.24268c-0.55225,0-1,0.44775-1,1s0.44775,1,1,1
		h1.86725c-0.78101,0.8385-1.5094,1.7254-2.16217,2.66504C8.57422,21.85742,7,26.8252,7,32
		c0,4.37105,1.14598,8.66203,3.31439,12.41103c0.27426,0.47417,0.89262,0.6409,1.36627,0.36436
		c0.47852-0.27637,0.6416-0.8877,0.36523-1.36621C10.05322,39.96484,9,36.01953,9,32z"/>
	<path d="M52.15234,49.03125h-1.86737c0.78052-0.83795,1.50885-1.72485,2.16229-2.66504C55.42578,42.1416,57,37.17383,57,32
		c0-4.36914-1.14551-8.66064-3.31348-12.41064c-0.27734-0.47852-0.8877-0.64258-1.36719-0.36523
		c-0.47754,0.27637-0.6416,0.88818-0.36523,1.36621C53.94727,24.03662,55,27.98193,55,32
		c0,4.75879-1.44824,9.32812-4.19141,13.21973c-0.5769,0.83002-1.21545,1.61414-1.89844,2.35614v-1.7868c0-0.55273-0.44727-1-1-1
		s-1,0.44727-1,1v4.24219c0,0.55273,0.44727,1,1,1h4.24219c0.55273,0,1-0.44727,1-1S52.70508,49.03125,52.15234,49.03125z"/>
	<path d="M46.88965,41.23535c-0.82129-0.92383-1.02832-2.15625-0.55566-3.29785s1.49121-1.86719,2.72461-1.93945
		C49.58691,35.9668,50,35.5293,50,35v-6c0-0.5293-0.41309-0.96729-0.94141-0.99805c-1.2334-0.07275-2.25195-0.79785-2.72461-1.93945
		s-0.26465-2.37402,0.55566-3.29736c0.35254-0.396,0.33398-0.99707-0.04004-1.37158l-4.24316-4.24268
		c-0.37305-0.37402-0.97559-0.39209-1.37109-0.04053c-0.92383,0.81982-2.1543,1.0293-3.29883,0.55566
		c-1.1416-0.47266-1.86621-1.49121-1.93848-2.72461C35.9668,14.4126,35.5293,14,35,14h-6c-0.5293,0-0.96729,0.4126-0.99805,0.94141
		c-0.07275,1.2334-0.79736,2.25195-1.93896,2.72461c-1.1416,0.47412-2.37402,0.26514-3.29785-0.55566
		c-0.39551-0.35156-0.99609-0.33398-1.37158,0.04053l-4.24268,4.24268c-0.37451,0.37451-0.39209,0.97559-0.04053,1.37158
		c0.8208,0.92334,1.02881,2.15625,0.55566,3.29785c-0.47266,1.1416-1.49121,1.86621-2.72461,1.93896
		C14.4126,28.03271,14,28.4707,14,29v6c0,0.5293,0.4126,0.9668,0.94141,0.99805c1.2334,0.07227,2.25195,0.79688,2.72461,1.93848
		c0.47314,1.1416,0.26562,2.375-0.55566,3.29883c-0.35156,0.39551-0.33398,0.99707,0.04053,1.37109l4.24268,4.24316
		c0.37354,0.37402,0.97656,0.3916,1.37158,0.04004c0.92383-0.81934,2.15771-1.02734,3.29736-0.55566
		c1.14161,0.47266,1.8667,1.49121,1.93946,2.72461C28.03271,49.58691,28.4707,50,29,50h6c0.5293,0,0.9668-0.41309,0.99805-0.94141
		c0.07227-1.2334,0.79785-2.25195,1.93945-2.72461c1.14063-0.47363,2.37305-0.26465,3.29786,0.55566
		c0.39551,0.35254,0.99805,0.33398,1.37109-0.04004l4.24316-4.24316C47.22461,42.23242,47.24219,41.63086,46.88965,41.23535z
		 M44.8291,41.79785l-3.03125,3.03125c-1.38379-0.83887-3.08301-0.98242-4.62598-0.34277
		c-1.54102,0.6377-2.64355,1.93945-3.0293,3.51367h-4.28564c-0.38574-1.57422-1.48877-2.87598-3.0293-3.51465
		c-1.54053-0.6377-3.24072-0.49609-4.62598,0.34375l-3.03076-3.03125c0.84033-1.38574,0.98145-3.08594,0.34277-4.62695
		C18.87549,35.63086,17.57373,34.52832,16,34.14258v-4.28564c1.57373-0.38574,2.87598-1.48828,3.51416-3.02881
		c0.6377-1.54053,0.49707-3.24072-0.34326-4.62646l3.03076-3.03076c1.38623,0.83984,3.08594,0.98096,4.62646,0.34326
		c1.54053-0.63818,2.64307-1.94043,3.02881-3.51416h4.28564c0.38574,1.57373,1.48828,2.87549,3.02832,3.51367
		s3.24023,0.49707,4.62695-0.34277l3.03125,3.03076c-0.84082,1.38574-0.98145,3.08594-0.34375,4.62598
		c0.63867,1.54102,1.94043,2.64355,3.51465,3.0293v4.28564c-1.57422,0.38574-2.87598,1.48828-3.51367,3.0293
		C43.84766,38.71289,43.98926,40.41309,44.8291,41.79785z"/>
	<path d="M32,21c-6.06543,0-11,4.93457-11,11s4.93457,11,11,11s11-4.93457,11-11S38.06543,21,32,21z M30.51495,40.86676
		l0.32001-3.18707c0.04443-0.44434-0.21094-0.86426-0.62598-1.0293C28.28955,35.88867,27,33.94727,27,31.81982
		c0-1.66748,0.76514-3.19385,2-4.14746v3.11768c0,0.37451,0.20947,0.71777,0.54199,0.88916l2,1.02979
		c0.28809,0.14746,0.62793,0.14746,0.91602,0l2-1.02979C34.79102,31.50781,35,31.16455,35,30.79004v-3.11768
		c1.23438,0.95361,2,2.47998,2,4.14746c0,2.12744-1.29004,4.06885-3.20898,4.83057c-0.41504,0.16504-0.6709,0.58496-0.62598,1.0293
		l0.32037,3.18707C33.00104,40.94769,32.50702,41,32,41C31.4931,41,30.99921,40.94769,30.51495,40.86676z M35.44025,40.31354
		l-0.21368-2.12799C37.51074,36.96387,39,34.49609,39,31.81982c0-3.05078-1.87402-5.76807-4.66406-6.76172
		c-0.30469-0.1084-0.64648-0.0625-0.91211,0.12451C33.1582,25.37012,33,25.6748,33,26v4.18018l-1,0.51465l-1-0.51465
		c0,0,0-4.16516,0-4.18014c0-0.68434-0.69097-1.17115-1.33545-0.94193C26.87451,26.05176,25,28.76904,25,31.81982
		c0,2.67627,1.48926,5.14404,3.77393,6.36572l-0.21368,2.12811C25.29999,38.95966,23,35.74469,23,32c0-4.9624,4.0376-9,9-9
		c4.96289,0,9,4.0376,9,9C41,35.74463,38.70044,38.95953,35.44025,40.31354z"/>
</g>
</svg>
