<?xml version="1.0" encoding="utf-8"?>
<!-- Generator: Adobe Illustrator 27.3.1, SVG Export Plug-In . SVG Version: 6.00 Build 0)  -->
<svg version="1.1" id="Outline" xmlns="http://www.w3.org/2000/svg" xmlns:xlink="http://www.w3.org/1999/xlink" x="0px" y="0px"
	 viewBox="0 0 64 64" enable-background="new 0 0 64 64" xml:space="preserve">
<g>
	<path d="M56,7H8C7.44775,7,7,7.44727,7,8v32c0,0.55273,0.44775,1,1,1h13v2.80176c0,6.38379,4.54345,11.92675,10.8037,13.17871
		c0.12963,0.02592,0.26299,0.02592,0.39259,0C38.45654,55.72852,43,50.18555,43,43.80176V41h13c0.55225,0,1-0.44727,1-1V8
		C57,7.44727,56.55225,7,56,7z M13,22v-8c0-0.55176,0.44873-1,1-1h36c0.55127,0,1,0.44824,1,1v8c0,0.55176-0.44873,1-1,1H14
		C13.44873,23,13,22.55176,13,22z M13,26c0-0.55176,0.44873-1,1-1h36c0.55127,0,1,0.44824,1,1v8c0,0.55176-0.44873,1-1,1
		c0,0-8,0-8.02368,0.00476c-0.09839,0.0022-0.19672,0.01385-0.29224,0.04602l-0.63379,0.21191
		c-2.94678,0.9834-6.14551,0.22852-8.34326-1.96973c-0.39062-0.39062-1.02344-0.39062-1.41406,0
		c-2.19922,2.19824-5.396,2.95215-8.34375,1.96875l-0.6333-0.21094C22.22175,35.01921,22.12257,35.00695,22,35h-8
		c-0.55127,0-1-0.44824-1-1V26z M41,43.80176c0,5.36719-3.77295,10.03516-9,11.17676c-5.22705-1.1416-9-5.80957-9-11.17676v-6.44043
		c3.16748,0.81836,6.49121,0.07324,9-2.00977c2.5083,2.08398,5.83252,2.8291,9,2.00977V43.80176z M55,39H43v-2h7
		c1.6543,0,3-1.3457,3-3v-8c0-0.77112-0.30054-1.46802-0.78027-2C52.69946,23.46802,53,22.77112,53,22v-8c0-1.6543-1.3457-3-3-3H14
		c-1.6543,0-3,1.3457-3,3v8c0,0.77112,0.30054,1.46802,0.78027,2C11.30054,24.53198,11,25.22888,11,26v8c0,1.6543,1.3457,3,3,3h7v2
		H9V9h46V39z"/>
	<circle cx="16" cy="16" r="1"/>
	<circle cx="20" cy="16" r="1"/>
	<circle cx="24" cy="16" r="1"/>
	<circle cx="16" cy="20" r="1"/>
	<circle cx="20" cy="20" r="1"/>
	<circle cx="24" cy="20" r="1"/>
	<path d="M48,17H34c-0.55225,0-1,0.44727-1,1s0.44775,1,1,1h14c0.55225,0,1-0.44727,1-1S48.55225,17,48,17z"/>
	<circle cx="16" cy="28" r="1"/>
	<circle cx="20" cy="28" r="1"/>
	<circle cx="24" cy="28" r="1"/>
	<circle cx="16" cy="32" r="1"/>
	<circle cx="20" cy="32" r="1"/>
	<circle cx="24" cy="32" r="1"/>
	<path d="M34,31h14c0.55225,0,1-0.44727,1-1s-0.44775-1-1-1H34c-0.55225,0-1,0.44727-1,1S33.44775,31,34,31z"/>
	<path d="M38.03516,39.67383c-1.94824-0.06934-3.86475-0.6084-5.54199-1.55957c-0.30566-0.17383-0.68066-0.17383-0.98633,0
		c-1.67725,0.95117-3.59375,1.49023-5.54199,1.55957C25.42676,39.69238,25,40.13379,25,40.67285v3.12891
		c0,4.12597,2.75928,7.84179,6.71045,9.03613c0.18843,0.05696,0.39069,0.05695,0.57911,0C36.24072,51.64355,39,47.92773,39,43.80176
		v-3.12891C39,40.13379,38.57324,39.69238,38.03516,39.67383z M32,50.8291c-2.95898-1.03027-5-3.87695-5-7.02734v-2.19629
		c1.74609-0.18164,3.4502-0.6875,5-1.48438c1.5498,0.79688,3.25391,1.30273,5,1.48438v0.76337l-4.42578,3.54132l-1.86719-1.86719
		c-0.39062-0.39062-1.02344-0.39062-1.41406,0s-0.39062,1.02344,0,1.41406c0,0,2.49862,2.49862,2.5,2.5
		c0.34776,0.34776,0.93394,0.3923,1.33154,0.07422l3.77008-3.01636C36.44812,47.6629,34.57294,49.93323,32,50.8291z"/>
</g>
</svg>
