<?xml version="1.0" encoding="utf-8"?>
<!-- Generator: Adobe Illustrator 27.3.1, SVG Export Plug-In . SVG Version: 6.00 Build 0)  -->
<svg version="1.1" id="Outline" xmlns="http://www.w3.org/2000/svg" xmlns:xlink="http://www.w3.org/1999/xlink" x="0px" y="0px"
	 viewBox="0 0 64 64" enable-background="new 0 0 64 64" xml:space="preserve">
<g>
	<path d="M56,7H8C7.44727,7,7,7.44727,7,8v48c0,0.55273,0.44727,1,1,1h48c0.55273,0,1-0.44727,1-1V8C57,7.44727,56.55273,7,56,7z
		 M55,15H23.99976L25.5,13H55V15z M55,9v2H25c-0.31445,0-0.61133,0.14844-0.7998,0.40039L21.50049,15H9V9H55z M9,55V17h46v38H9z"/>
	<circle cx="12" cy="12" r="1"/>
	<circle cx="16" cy="12" r="1"/>
	<circle cx="20" cy="12" r="1"/>
	<path d="M52,36h-2v-2c0-0.5293-0.41309-0.9668-0.94141-0.99805c-1.2334-0.07227-2.25195-0.79785-2.72461-1.93945
		s-0.26562-2.37402,0.55566-3.29785c0.35254-0.39551,0.33496-0.99707-0.04004-1.37109l-4.24316-4.24316
		c-0.37305-0.37305-0.97656-0.3916-1.37109-0.04004c-0.92383,0.81934-2.15723,1.02832-3.29786,0.55566
		c-1.14159-0.47266-1.86718-1.49121-1.93945-2.72461C35.9668,19.41309,35.5293,19,35,19h-6
		c-0.5293,0-0.9668,0.41309-0.99805,0.94141c-0.07227,1.2334-0.79785,2.25195-1.93946,2.72461
		c-1.14257,0.47168-2.37401,0.26367-3.29784-0.55566c-0.39355-0.35156-0.99707-0.33301-1.37109,0.04004l-4.24219,4.24316
		c-0.37402,0.37402-0.39258,0.97559-0.04004,1.37109c0.82031,0.92383,1.02832,2.15625,0.55469,3.29785
		c-0.47266,1.1416-1.49121,1.86719-2.72461,1.93945C14.41309,33.0332,14,33.4707,14,34v2h-2c-0.55273,0-1,0.44727-1,1v7
		c0,0.55273,0.44727,1,1,1h40c0.55273,0,1-0.44727,1-1v-7C53,36.44727,52.55273,36,52,36z M16,34.85742
		c1.57422-0.38574,2.87598-1.48828,3.51367-3.0293c0.63867-1.54102,0.49707-3.24121-0.34277-4.62598l3.03125-3.03125
		c1.38477,0.83887,3.08398,0.9834,4.62598,0.34277c1.54102-0.6377,2.64355-1.93945,3.0293-3.51367h4.28516
		c0.38574,1.57422,1.48828,2.87598,3.0293,3.51367c1.54199,0.64062,3.24121,0.49609,4.62598-0.34277l3.03125,3.03125
		c-0.84082,1.38574-0.98145,3.08594-0.34277,4.62598c0.6377,1.54102,1.93945,2.64355,3.51367,3.0293V36h-6.05072
		C41.44574,30.9541,37.17615,27,32,27s-9.44574,3.9541-9.94928,9H16V34.85742z M39.93054,36H24.06946
		c0.49463-3.93994,3.85876-7,7.93054-7S39.43591,32.06006,39.93054,36z M13,38h6v5h-6V38z M51,43H21v-5h30V43z"/>
	<path d="M12,49h15c0.55273,0,1-0.44727,1-1s-0.44727-1-1-1H12c-0.55273,0-1,0.44727-1,1S11.44727,49,12,49z"/>
	<path d="M44,51H12c-0.55273,0-1,0.44727-1,1s0.44727,1,1,1h32c0.55273,0,1-0.44727,1-1S44.55273,51,44,51z"/>
	<path d="M52,51h-4c-0.55273,0-1,0.44727-1,1s0.44727,1,1,1h4c0.55273,0,1-0.44727,1-1S52.55273,51,52,51z"/>
	<path d="M46,39.5H26c-0.55273,0-1,0.44727-1,1s0.44727,1,1,1h20c0.55273,0,1-0.44727,1-1S46.55273,39.5,46,39.5z"/>
</g>
</svg>
