<svg xmlns="http://www.w3.org/2000/svg" width="48" height="48" fill="none"><g clip-path="url(#a)"><path fill="#4285F4" d="M45 24.966c0-1.762-.143-3.047-.453-4.38H24.43v7.952h11.809c-.238 1.976-1.524 4.952-4.381 6.952l-.04.266 6.361 4.928.44.044C42.667 36.99 45 31.49 45 24.966z"/><path fill="#34A853" d="M24.429 45.919c5.785 0 10.642-1.905 14.19-5.191l-6.762-5.238c-1.81 1.262-4.238 2.143-7.428 2.143-5.667 0-10.477-3.738-12.191-8.905l-.251.021-6.615 5.12-.086.24c3.523 7 10.761 11.81 19.143 11.81z"/><path fill="#FBBC05" d="M12.238 28.728a13.191 13.191 0 0 1-.714-4.238c0-1.476.262-2.905.69-4.238l-.012-.284-6.697-5.201-.22.104A21.449 21.449 0 0 0 3 24.49c0 3.452.833 6.714 2.286 9.619l6.952-5.38z"/><path fill="#EB4335" d="M24.429 11.347c4.023 0 6.738 1.738 8.285 3.19l6.048-5.904c-3.714-3.452-8.548-5.571-14.333-5.571-8.381 0-15.62 4.809-19.143 11.809l6.928 5.381c1.738-5.167 6.548-8.905 12.215-8.905z"/></g><defs><clipPath id="a"><path fill="#fff" d="M3 3h42v42.98H3z"/></clipPath></defs></svg>